<svg width="421" height="460" viewBox="0 0 421 460" fill="none" xmlns="http://www.w3.org/2000/svg">
<path d="M338.384 305C338.384 330.56 355.692 353.542 371.688 371.902C375.818 376.642 380.028 381.249 384.034 385.63L384.139 385.745C388.137 390.118 391.911 394.246 395.361 398.218C402.501 406.442 407.401 413.07 409.66 418.465C410.738 421.037 410.978 422.794 410.902 423.953C410.837 424.938 410.528 425.938 409.514 427.17C407.053 430.156 400.567 434.315 385.576 438.128C356.094 445.625 301.449 450 207.384 450C117.085 450 64.3306 445.625 35.5742 438.142C21.009 434.351 14.4201 430.195 11.7468 427.051C9.93455 424.92 9.29795 422.591 10.9415 417.922C12.8077 412.621 17.144 406.069 23.6444 397.879C26.8102 393.89 30.3029 389.736 34.0194 385.33L34.6533 384.578C38.1502 380.433 41.8206 376.082 45.4276 371.618C60.3058 353.206 76.3839 330.309 76.3839 305C76.3839 261.853 76.4824 202.618 93.4463 154.205C101.864 130.182 114.221 109.504 132.192 94.8333C150.016 80.2823 174.139 71 207.384 71C237.4 71 260.03 80.145 277.404 94.7432C294.959 109.493 307.734 130.314 316.912 154.452C335.346 202.936 338.384 262.369 338.384 305Z" fill="#FBCA1D" stroke="black" stroke-width="20"/>
<ellipse cx="200.5" cy="36" rx="15.5" ry="36" fill="black"/>
</svg>
