<svg width="832" height="499" viewBox="0 0 832 499" fill="none" xmlns="http://www.w3.org/2000/svg">
<path d="M18.6473 245.651C19.0776 245.051 19.5324 244.42 20.0115 243.76C24.7208 237.268 31.7735 227.924 41.0382 216.678C59.5838 194.167 86.9047 164.142 121.943 134.144C192.201 73.9932 292.221 15 414 15C529.207 15 630.374 73.9104 703.645 134.323C740.124 164.401 769.268 194.508 789.282 217.09C799.281 228.371 806.978 237.749 812.15 244.271C812.598 244.835 813.026 245.378 813.435 245.899C813.098 246.366 812.748 246.851 812.383 247.353C807.601 253.938 800.458 263.417 791.115 274.84C772.415 297.704 744.992 328.248 710.149 358.93C640.243 420.49 541.97 481.309 425.33 484C297.357 483.946 194.537 422.955 123.084 360.923C87.4115 329.954 59.8386 298.96 41.201 275.724C31.8902 264.116 24.8312 254.472 20.1275 247.773C19.6049 247.029 19.1115 246.321 18.6473 245.651Z" fill="white" stroke="black" stroke-width="30"/>
<circle cx="414.5" cy="251.5" r="156.5" fill="black"/>
<ellipse cx="414.5" cy="251.5" rx="66.5" ry="67.5" fill="white"/>
</svg>
